<svg xmlns="http://www.w3.org/2000/svg" version="1.1" xmlns:xlink="http://www.w3.org/1999/xlink" xmlns:svgjs="http://svgjs.dev/svgjs" width="24" height="24"><svg xmlns="http://www.w3.org/2000/svg" viewBox="0 0 24 24"><path d="M18,4V3A1,1 0 0,0 17,2H5A1,1 0 0,0 4,3V7A1,1 0 0,0 5,8H17A1,1 0 0,0 18,7V6H19V10H9V21A1,1 0 0,0 10,22H12A1,1 0 0,0 13,21V12H21V4H18Z"></path></svg><style>@media (prefers-color-scheme: light) { :root { filter: none; } }
@media (prefers-color-scheme: dark) { :root { filter: invert(100%); } }
</style></svg>